<?xml version="1.0" standalone="no"?>
<!DOCTYPE svg PUBLIC "-//W3C//DTD SVG 20010904//EN"
 "http://www.w3.org/TR/2001/REC-SVG-20010904/DTD/svg10.dtd">
<svg version="1.0" xmlns="http://www.w3.org/2000/svg"
 width="100.000000pt" height="100.000000pt" viewBox="0 0 100.000000 100.000000"
 preserveAspectRatio="xMidYMid meet">

<g transform="translate(0.000000,100.000000) scale(0.100000,-0.100000)"
fill="#000000" stroke="none">
<path d="M405 847 c-109 -37 -186 -103 -232 -202 -24 -51 -28 -73 -28 -145 0
-72 4 -94 28 -146 36 -77 104 -145 182 -181 51 -24 73 -28 145 -28 72 0 94 4
145 28 78 36 146 104 182 181 24 52 28 74 28 146 0 72 -4 94 -28 146 -57 123
-177 204 -311 211 -41 1 -88 -3 -111 -10z m238 -41 c71 -34 129 -93 164 -164
24 -49 28 -69 28 -142 0 -73 -4 -93 -28 -142 -35 -72 -93 -130 -165 -165 -49
-24 -69 -28 -142 -28 -73 0 -93 4 -142 28 -193 95 -256 329 -135 500 97 136
275 184 420 113z"/>
<path d="M374 776 c-65 -30 -120 -85 -150 -150 -45 -96 -24 -262 40 -315 10
-8 2 9 -16 39 -29 47 -33 63 -36 135 -3 66 0 92 16 127 41 94 130 164 225 178
49 7 50 8 12 9 -23 0 -61 -9 -91 -23z"/>
<path d="M550 790 c14 -4 32 -8 40 -9 13 -1 13 0 0 9 -8 5 -26 9 -40 9 l-25
-1 25 -8z"/>
<path d="M688 724 c23 -20 54 -57 70 -82 24 -42 27 -56 27 -142 0 -104 -9
-130 -67 -195 -49 -57 -108 -86 -191 -95 l-72 -7 60 -2 c108 -2 211 66 261
173 33 71 33 181 0 251 -22 48 -100 135 -120 135 -5 0 9 -16 32 -36z"/>
<path d="M447 634 c-11 -12 -8 -274 3 -274 6 0 10 28 10 65 l0 65 35 0 c19 0
35 5 35 10 0 6 -16 10 -35 10 l-35 0 0 50 0 50 66 0 c48 0 65 3 62 13 -5 13
-129 23 -141 11z"/>
<path d="M290 281 c0 -5 7 -12 16 -15 14 -5 15 -4 4 9 -14 17 -20 19 -20 6z"/>
<path d="M340 245 c0 -7 61 -37 66 -33 2 3 -12 12 -31 21 -19 9 -35 15 -35 12z"/>
<path d="M428 203 c7 -3 16 -2 19 1 4 3 -2 6 -13 5 -11 0 -14 -3 -6 -6z"/>
</g>
</svg>
